<mxfile host="app.diagrams.net" modified="2024-03-17T07:27:00.431Z" agent="Mozilla/5.0 (X11; Linux x86_64) AppleWebKit/537.36 (KHTML, like Gecko) Chrome/122.0.0.0 Safari/537.36" etag="CnAVM9F0o6tticc6UlsE" version="23.1.4" type="github">
  <diagram name="Page-1" id="2drI67Vi5Ot_rhwhXXxP">
    <mxGraphModel dx="2295" dy="1203" grid="1" gridSize="10" guides="1" tooltips="1" connect="1" arrows="1" fold="1" page="1" pageScale="1" pageWidth="1654" pageHeight="1169" math="0" shadow="0">
      <root>
        <mxCell id="0" />
        <mxCell id="1" parent="0" />
      </root>
    </mxGraphModel>
  </diagram>
</mxfile>
